<svg id="visual" viewBox="0 0 960 540" width="960" height="540" xmlns="http://www.w3.org/2000/svg" xmlns:xlink="http://www.w3.org/1999/xlink" version="1.1"><rect x="0" y="0" width="960" height="540" fill="#ffffff"></rect><path d="M0 415L32 399.7C64 384.3 128 353.7 192 340.5C256 327.3 320 331.7 384 341C448 350.3 512 364.7 576 374.5C640 384.3 704 389.7 768 386.5C832 383.3 896 371.7 928 365.8L960 360L960 541L928 541C896 541 832 541 768 541C704 541 640 541 576 541C512 541 448 541 384 541C320 541 256 541 192 541C128 541 64 541 32 541L0 541Z" fill="#95afe7"></path><path d="M0 409L32 416.3C64 423.7 128 438.3 192 442.5C256 446.7 320 440.3 384 432.2C448 424 512 414 576 407.3C640 400.7 704 397.3 768 405C832 412.7 896 431.3 928 440.7L960 450L960 541L928 541C896 541 832 541 768 541C704 541 640 541 576 541C512 541 448 541 384 541C320 541 256 541 192 541C128 541 64 541 32 541L0 541Z" fill="#5d86e9"></path><path d="M0 450L32 455.8C64 461.7 128 473.3 192 477.3C256 481.3 320 477.7 384 471.5C448 465.3 512 456.7 576 451.7C640 446.7 704 445.3 768 448.5C832 451.7 896 459.3 928 463.2L960 467L960 541L928 541C896 541 832 541 768 541C704 541 640 541 576 541C512 541 448 541 384 541C320 541 256 541 192 541C128 541 64 541 32 541L0 541Z" fill="#1c5be5"></path></svg>